<?xml version="1.0" encoding="UTF-8"?>
<!DOCTYPE svg PUBLIC "-//W3C//DTD SVG 1.1//EN" "http://www.w3.org/Graphics/SVG/1.1/DTD/svg11.dtd">
<!-- Creator: CorelDRAW (Versión de evaluación) -->
<svg xmlns="http://www.w3.org/2000/svg" xml:space="preserve" width="1500px" height="1320px" version="1.1" style="shape-rendering:geometricPrecision; text-rendering:geometricPrecision; image-rendering:optimizeQuality; fill-rule:evenodd; clip-rule:evenodd"
viewBox="0 0 1500 1320"
 xmlns:xlink="http://www.w3.org/1999/xlink"
 xmlns:xodm="http://www.corel.com/coreldraw/odm/2003">
 <defs>
  <style type="text/css">
   <![CDATA[
    .str0 {stroke:#FF7801;stroke-width:1.2;stroke-miterlimit:22.9256}
    .str1 {stroke:#FF7801;stroke-width:0.54;stroke-miterlimit:22.9256}
    .fil0 {fill:#FF7801}
    .fil1 {fill:black;fill-rule:nonzero}
   ]]>
  </style>
 </defs>
 <g id="Capa_x0020_1">
  <metadata id="CorelCorpID_0Corel-Layer"/>
  <circle class="fil0 str0" transform="matrix(1.15492 -0 -0.186871 1.17252 688.748 684)" r="53.04"/>
  <circle class="fil0 str0" transform="matrix(1.15492 -0 -0.186871 1.17252 887.719 684)" r="53.04"/>
  <path class="fil0 str1" d="M755.14 846.27c-180.61,0 -307.46,-128.56 -308.52,-298.44l59.67 0 -60.76 -113.98 -138.86 113.98 53.43 0 -68.94 383.05 448.53 0c251.1,0 491.52,-201.87 536.99,-450.89 45.48,-249.02 -121.21,-450.88 -372.31,-450.88 -219.01,0 -429.9,153.57 -510.39,358.05l216.35 0 0 110.9 0 62.67c0,11.96 10.01,21.65 22.37,21.65l67.09 0 280.79 0 0.43 0.01c8.87,-0.13 15.69,-4.19 19.39,-11.6l111.05 -220.73c1.66,-3.67 2.58,-7.74 2.58,-12.02 0,-16.11 -13.06,-29.16 -29.16,-29.16l-239.65 0c-11.66,4.89 -23.32,9.78 -34.41,18.1 -11.1,8.32 -21.64,20.07 -27.95,30.09 -6.31,10.02 -8.39,18.31 -10.48,26.6l232.45 0 -58.5 114.39 -246.54 0 0 -110.9 0 -59.56c0,-11.96 -10.01,-21.66 -22.36,-21.66l-67.1 0 -81.58 0c83.36,-114.47 219.71,-192.23 360.17,-192.23 203.98,0 339.39,163.99 302.45,366.28 -36.94,202.29 -232.25,366.28 -436.23,366.28z"/>
  <path class="fil1" d="M208.2 1162.89c0,6.62 -0.68,13.29 -2,20.09 -1.32,6.76 -3.37,13.29 -6.11,19.6 -2.69,6.26 -6.11,12.17 -10.22,17.66 -4.1,5.5 -8.89,10.32 -14.42,14.42 -5.47,4.06 -11.63,7.3 -18.52,9.69 -6.9,2.39 -14.47,3.56 -22.78,3.56 -8.9,0 -16.48,-0.99 -22.73,-3.02 -6.26,-2.03 -11.39,-4.96 -15.4,-8.79 -4.01,-3.83 -6.94,-8.51 -8.8,-14.01 -1.86,-5.5 -2.79,-11.67 -2.79,-18.52 0,-6.62 0.69,-13.29 2.01,-20.09 1.32,-6.76 3.37,-13.25 6.11,-19.51 2.69,-6.26 6.11,-12.17 10.21,-17.71 4.11,-5.54 8.9,-10.32 14.42,-14.37 5.48,-4.06 11.64,-7.26 18.53,-9.64 6.89,-2.39 14.47,-3.56 22.78,-3.56 8.9,0 16.47,0.99 22.73,3.02 6.26,2.02 11.39,4.95 15.4,8.78 4.01,3.83 6.94,8.47 8.8,13.92 1.85,5.46 2.78,11.63 2.78,18.48zm-18.18 0.81c0,-4.82 -0.59,-9.15 -1.71,-13.02 -1.13,-3.88 -3.03,-7.17 -5.62,-9.82 -2.64,-2.71 -6.07,-4.78 -10.22,-6.22 -4.2,-1.44 -9.29,-2.17 -15.3,-2.17 -6.26,0 -11.98,1 -17.06,2.98 -5.08,1.98 -9.68,4.64 -13.74,8.02 -4,3.38 -7.52,7.39 -10.55,11.94 -2.99,4.59 -5.48,9.46 -7.44,14.69 -1.95,5.22 -3.37,10.63 -4.34,16.22 -0.93,5.58 -1.42,11.13 -1.42,16.58 0,4.82 0.58,9.14 1.71,13.02 1.12,3.87 3.03,7.16 5.62,9.82 2.64,2.7 6.06,4.78 10.22,6.22 4.2,1.44 9.28,2.16 15.3,2.16 6.3,0 11.97,-0.99 17.06,-2.97 5.08,-1.98 9.67,-4.69 13.73,-8.11 4.01,-3.43 7.53,-7.44 10.56,-11.99 2.98,-4.59 5.48,-9.46 7.43,-14.69 1.96,-5.22 3.37,-10.63 4.35,-16.17 0.93,-5.54 1.42,-11.04 1.42,-16.49z"/>
  <path id="_1" class="fil1" d="M351.43 1150.05c0,3.11 -0.2,6.12 -0.59,9.1 -0.34,2.93 -0.88,5.95 -1.56,9.05l-16.18 74.93c-0.2,0.54 -0.44,0.99 -0.79,1.44 -0.34,0.46 -0.88,0.82 -1.56,1.09 -0.73,0.22 -1.66,0.45 -2.74,0.63 -1.07,0.18 -2.49,0.27 -4.2,0.27 -1.61,0 -2.98,-0.09 -4.01,-0.27 -1.08,-0.18 -1.86,-0.41 -2.44,-0.63 -0.59,-0.27 -0.98,-0.63 -1.18,-1.09 -0.14,-0.45 -0.19,-0.9 -0.09,-1.44l16.18 -74.93c0.63,-3.1 1.12,-5.99 1.41,-8.74 0.3,-2.74 0.44,-5.13 0.44,-7.16 0,-6.17 -1.42,-11.08 -4.3,-14.82 -2.83,-3.7 -7.58,-5.55 -14.22,-5.55 -5.72,0 -11.54,1.45 -17.36,4.37 -5.81,2.89 -11.24,6.94 -16.27,12.08 -4.99,5.18 -9.49,11.31 -13.35,18.47 -3.91,7.12 -6.75,14.92 -8.55,23.39l-11.44 52.89c-0.2,0.54 -0.44,0.99 -0.78,1.44 -0.35,0.46 -0.88,0.82 -1.57,1.09 -0.73,0.22 -1.66,0.45 -2.79,0.63 -1.17,0.18 -2.54,0.27 -4.15,0.27 -1.71,0 -3.13,-0.09 -4.16,-0.27 -1.07,-0.18 -1.85,-0.41 -2.44,-0.63 -0.59,-0.27 -0.98,-0.63 -1.17,-1.09 -0.15,-0.45 -0.15,-0.9 0.05,-1.44l25.76 -119.4c0.1,-0.54 0.34,-0.99 0.63,-1.44 0.34,-0.45 0.83,-0.81 1.52,-1.12 0.68,-0.32 1.51,-0.55 2.54,-0.68 1.08,-0.14 2.3,-0.18 3.71,-0.18 1.42,0 2.64,0.04 3.57,0.18 0.98,0.13 1.71,0.36 2.2,0.68 0.54,0.31 0.88,0.67 1.03,1.12 0.15,0.45 0.15,0.9 0.05,1.44l-5.09 24.42c1.23,-2.92 3.52,-6.12 6.75,-9.55 3.28,-3.47 7.14,-6.67 11.68,-9.64 4.55,-2.97 9.58,-5.41 15.16,-7.34 5.52,-1.94 11.29,-2.93 17.35,-2.93 6.21,0 11.39,0.9 15.59,2.66 4.21,1.75 7.63,4.1 10.22,6.98 2.54,2.93 4.4,6.26 5.47,10 1.13,3.79 1.67,7.66 1.67,11.72z"/>
  <path id="_2" class="fil1" d="M397.28 1243.13c-0.2,0.54 -0.44,0.99 -0.78,1.44 -0.35,0.46 -0.84,0.82 -1.57,1.04 -0.73,0.27 -1.66,0.5 -2.78,0.68 -1.18,0.18 -2.55,0.27 -4.16,0.27 -1.71,0 -3.13,-0.09 -4.15,-0.27 -1.08,-0.18 -1.86,-0.41 -2.45,-0.68 -0.58,-0.22 -0.98,-0.58 -1.12,-1.04 -0.2,-0.45 -0.2,-0.9 0,-1.44l38.47 -178.06c0.1,-0.54 0.29,-0.99 0.63,-1.44 0.34,-0.45 0.88,-0.81 1.57,-1.13 0.73,-0.31 1.66,-0.54 2.83,-0.67 1.18,-0.14 2.59,-0.18 4.35,-0.18 1.62,0 2.98,0.04 4.01,0.18 1.08,0.13 1.91,0.36 2.49,0.67 0.54,0.32 0.93,0.68 1.08,1.13 0.15,0.45 0.15,0.9 0.05,1.44l-38.47 178.06z"/>
  <path id="_3" class="fil1" d="M498.95 1083.59c-0.39,2.07 -0.88,3.74 -1.51,5.13 -0.59,1.36 -1.42,2.48 -2.5,3.29 -1.02,0.86 -2.34,1.45 -3.86,1.81 -1.51,0.36 -3.37,0.54 -5.57,0.54 -2.2,0 -3.96,-0.18 -5.33,-0.54 -1.42,-0.36 -2.39,-0.95 -3.03,-1.81 -0.59,-0.81 -0.93,-1.93 -0.98,-3.29 -0.05,-1.39 0.1,-3.06 0.49,-5.13 0.49,-2.03 1.03,-3.7 1.71,-5.09 0.69,-1.35 1.52,-2.48 2.5,-3.38 1.02,-0.9 2.29,-1.49 3.81,-1.85 1.51,-0.36 3.37,-0.54 5.57,-0.54 2.2,0 3.96,0.18 5.28,0.54 1.32,0.36 2.35,0.95 2.98,1.85 0.69,0.9 1.03,2.03 1.08,3.38 0.05,1.39 -0.15,3.06 -0.64,5.09zm-36.95 159.54c-0.2,0.54 -0.44,0.99 -0.78,1.44 -0.35,0.46 -0.84,0.82 -1.57,1.09 -0.73,0.22 -1.66,0.45 -2.79,0.63 -1.17,0.18 -2.54,0.27 -4.15,0.27 -1.71,0 -3.13,-0.09 -4.16,-0.27 -1.07,-0.18 -1.85,-0.41 -2.44,-0.63 -0.59,-0.27 -0.98,-0.63 -1.12,-1.09 -0.2,-0.45 -0.2,-0.9 0,-1.44l25.76 -119.4c0.1,-0.54 0.34,-0.99 0.68,-1.44 0.29,-0.45 0.83,-0.81 1.57,-1.12 0.73,-0.32 1.66,-0.55 2.83,-0.68 1.12,-0.14 2.59,-0.18 4.3,-0.18 1.66,0 2.98,0.04 4.06,0.18 1.08,0.13 1.86,0.36 2.44,0.68 0.59,0.31 0.93,0.67 1.08,1.12 0.15,0.45 0.2,0.9 0.1,1.44l-25.81 119.4z"/>
  <path id="_4" class="fil1" d="M629.52 1150.05c0,3.11 -0.2,6.12 -0.59,9.1 -0.34,2.93 -0.88,5.95 -1.57,9.05l-16.17 74.93c-0.2,0.54 -0.44,0.99 -0.79,1.44 -0.34,0.46 -0.88,0.82 -1.56,1.09 -0.73,0.22 -1.66,0.45 -2.74,0.63 -1.07,0.18 -2.49,0.27 -4.2,0.27 -1.62,0 -2.98,-0.09 -4.01,-0.27 -1.08,-0.18 -1.86,-0.41 -2.44,-0.63 -0.59,-0.27 -0.98,-0.63 -1.18,-1.09 -0.15,-0.45 -0.19,-0.9 -0.1,-1.44l16.18 -74.93c0.64,-3.1 1.13,-5.99 1.42,-8.74 0.29,-2.74 0.44,-5.13 0.44,-7.16 0,-6.17 -1.42,-11.08 -4.3,-14.82 -2.84,-3.7 -7.58,-5.55 -14.22,-5.55 -5.72,0 -11.54,1.45 -17.36,4.37 -5.81,2.89 -11.24,6.94 -16.28,12.08 -4.98,5.18 -9.48,11.31 -13.34,18.47 -3.91,7.12 -6.75,14.92 -8.55,23.39l-11.44 52.89c-0.2,0.54 -0.44,0.99 -0.78,1.44 -0.35,0.46 -0.89,0.82 -1.57,1.09 -0.73,0.22 -1.66,0.45 -2.79,0.63 -1.17,0.18 -2.54,0.27 -4.15,0.27 -1.71,0 -3.13,-0.09 -4.16,-0.27 -1.07,-0.18 -1.85,-0.41 -2.44,-0.63 -0.59,-0.27 -0.98,-0.63 -1.17,-1.09 -0.15,-0.45 -0.15,-0.9 0.05,-1.44l25.76 -119.4c0.09,-0.54 0.34,-0.99 0.63,-1.44 0.34,-0.45 0.83,-0.81 1.52,-1.12 0.68,-0.32 1.51,-0.55 2.54,-0.68 1.07,-0.14 2.3,-0.18 3.71,-0.18 1.42,0 2.64,0.04 3.57,0.18 0.98,0.13 1.71,0.36 2.2,0.68 0.54,0.31 0.88,0.67 1.03,1.12 0.15,0.45 0.15,0.9 0.05,1.44l-5.09 24.42c1.23,-2.92 3.52,-6.12 6.75,-9.55 3.28,-3.47 7.14,-6.67 11.68,-9.64 4.55,-2.97 9.58,-5.41 15.16,-7.34 5.52,-1.94 11.29,-2.93 17.35,-2.93 6.21,0 11.39,0.9 15.59,2.66 4.21,1.75 7.63,4.1 10.22,6.98 2.54,2.93 4.4,6.26 5.47,10 1.13,3.79 1.67,7.66 1.67,11.72z"/>
  <path id="_5" class="fil1" d="M775.97 1147.07c0,5.9 -1.52,11.18 -4.5,15.91 -2.98,4.68 -7.72,8.69 -14.23,12.07 -6.45,3.34 -14.76,5.9 -24.83,7.71 -10.12,1.8 -22.24,2.7 -36.41,2.7l-16.43 0c-0.68,3.33 -1.12,6.58 -1.42,9.78 -0.29,3.15 -0.44,6.08 -0.44,8.83 0,9.64 2.55,17.12 7.63,22.39 5.08,5.27 13.34,7.93 24.83,7.93 6.01,0 11.39,-0.4 16.18,-1.26 4.79,-0.81 8.9,-1.71 12.37,-2.66 3.47,-0.94 6.3,-1.84 8.45,-2.66 2.16,-0.85 3.62,-1.26 4.36,-1.26 0.78,0 1.32,0.27 1.66,0.86 0.34,0.58 0.49,1.31 0.49,2.16 0,0.54 -0.05,1.22 -0.2,2.07 -0.15,0.81 -0.39,1.72 -0.68,2.62 -0.25,0.94 -0.64,1.84 -1.13,2.79 -0.49,0.9 -1.02,1.67 -1.71,2.3 -1.12,1.03 -3.13,2.07 -5.96,3.11 -2.79,0.99 -6.11,1.89 -9.93,2.7 -3.81,0.77 -7.96,1.44 -12.46,1.94 -4.45,0.54 -8.9,0.81 -13.3,0.81 -8.21,0 -15.35,-0.9 -21.46,-2.7 -6.11,-1.81 -11.19,-4.51 -15.25,-8.11 -4.05,-3.61 -7.08,-8.11 -9.09,-13.57 -2,-5.4 -2.98,-11.71 -2.98,-18.92 0,-5.63 0.59,-11.67 1.81,-18.16 1.17,-6.44 3.03,-12.88 5.57,-19.24 2.49,-6.4 5.77,-12.52 9.78,-18.38 4.01,-5.86 8.8,-10.99 14.32,-15.41 5.52,-4.46 11.93,-8.02 19.16,-10.72 7.24,-2.66 15.4,-4.01 24.49,-4.01 7.53,0 13.88,0.9 19.16,2.7 5.23,1.8 9.49,4.1 12.76,6.85 3.32,2.79 5.67,5.86 7.19,9.19 1.46,3.33 2.2,6.53 2.2,9.64zm-18.19 1.72c0,-5.01 -2.15,-9.02 -6.4,-12.04 -4.25,-3.01 -10.27,-4.55 -18.04,-4.55 -6.84,0 -12.95,1.09 -18.33,3.29 -5.38,2.21 -10.07,5.14 -14.17,8.83 -4.11,3.7 -7.58,7.98 -10.51,12.85 -2.89,4.86 -5.24,9.95 -7.04,15.31l15.78 0c11.39,0 20.88,-0.63 28.36,-1.89 7.53,-1.3 13.54,-3.02 18.03,-5.22 4.5,-2.17 7.68,-4.69 9.54,-7.57 1.85,-2.84 2.78,-5.86 2.78,-9.01z"/>
  <path id="_6" class="fil1" d="M955.95 1130.9c0,0.81 -0.1,1.75 -0.34,2.84 -0.25,1.12 -0.59,2.2 -1.08,3.19 -0.49,1.04 -1.02,1.9 -1.66,2.57 -0.63,0.72 -1.27,1.08 -1.9,1.08 -1.18,0 -2.5,-0.45 -3.96,-1.35 -1.47,-0.85 -3.33,-1.84 -5.58,-2.97 -2.25,-1.13 -4.93,-2.12 -8.16,-2.97 -3.18,-0.91 -6.99,-1.36 -11.49,-1.36 -4.69,0 -8.8,0.63 -12.46,1.9 -3.62,1.3 -6.65,3.01 -9.05,5.13 -2.44,2.17 -4.3,4.64 -5.52,7.39 -1.22,2.8 -1.86,5.59 -1.86,8.52 0,3.87 1.27,7.07 3.86,9.68 2.59,2.62 5.82,4.87 9.73,6.85 3.91,1.99 8.12,3.92 12.66,5.77 4.55,1.85 8.75,4.06 12.66,6.58 3.91,2.57 7.14,5.63 9.73,9.19 2.59,3.56 3.86,8.07 3.86,13.52 0,5.99 -1.27,11.49 -3.81,16.58 -2.49,5.04 -6.16,9.41 -10.85,13.11 -4.74,3.69 -10.41,6.58 -17.06,8.65 -6.65,2.07 -14.03,3.11 -22.15,3.11 -4.4,0 -8.5,-0.32 -12.36,-0.99 -3.87,-0.68 -7.39,-1.49 -10.56,-2.44 -3.13,-0.94 -5.87,-2.07 -8.17,-3.28 -2.29,-1.22 -4.05,-2.44 -5.27,-3.56 -0.79,-0.72 -1.32,-1.4 -1.67,-2.12 -0.34,-0.68 -0.49,-1.53 -0.49,-2.48 0,-0.72 0.05,-1.44 0.15,-2.25 0.1,-0.77 0.25,-1.58 0.49,-2.39 0.24,-0.77 0.49,-1.53 0.78,-2.21 0.3,-0.72 0.64,-1.35 1.03,-1.94 0.39,-0.54 0.78,-0.99 1.22,-1.3 0.39,-0.32 0.88,-0.45 1.32,-0.45 1.17,0 2.54,0.63 4.16,1.84 1.61,1.22 3.76,2.53 6.35,3.97 2.64,1.44 5.96,2.75 9.97,3.96 4.01,1.22 8.95,1.85 14.86,1.85 5.92,0 11,-0.67 15.3,-2.03 4.3,-1.35 7.82,-3.19 10.66,-5.49 2.79,-2.26 4.89,-4.91 6.21,-7.89 1.32,-2.97 2,-6.13 2,-9.46 0,-4.05 -1.27,-7.34 -3.86,-9.91 -2.59,-2.57 -5.82,-4.87 -9.73,-6.85 -3.91,-2.03 -8.11,-3.97 -12.66,-5.81 -4.54,-1.85 -8.75,-4.06 -12.66,-6.54 -3.91,-2.52 -7.14,-5.54 -9.73,-9.1 -2.59,-3.6 -3.86,-8.15 -3.86,-13.69 0,-5.64 1.18,-10.82 3.57,-15.55 2.39,-4.78 5.77,-8.87 10.02,-12.3 4.3,-3.42 9.44,-6.08 15.45,-7.97 5.96,-1.9 12.46,-2.84 19.55,-2.84 3.32,0 6.6,0.22 9.87,0.72 3.23,0.49 6.21,1.12 8.95,1.94 2.74,0.81 5.13,1.71 7.23,2.74 2.11,1 3.67,1.99 4.75,2.98 1.02,0.9 1.56,2.16 1.56,3.83z"/>
  <path id="_7" class="fil1" d="M1077.28 1243.09c-0.2,0.54 -0.44,1.03 -0.79,1.48 -0.34,0.46 -0.83,0.77 -1.56,1.04 -0.73,0.27 -1.61,0.5 -2.74,0.68 -1.07,0.18 -2.49,0.27 -4.2,0.27 -1.62,0 -2.98,-0.09 -4.01,-0.27 -1.08,-0.18 -1.86,-0.41 -2.44,-0.68 -0.59,-0.27 -0.98,-0.58 -1.13,-1.04 -0.19,-0.45 -0.24,-0.94 -0.15,-1.48l16.28 -75.02c0.49,-2.43 0.93,-5.27 1.27,-8.43 0.39,-3.15 0.59,-5.9 0.59,-8.2 0,-2.88 -0.34,-5.54 -0.98,-7.88 -0.68,-2.39 -1.76,-4.42 -3.22,-6.17 -1.52,-1.72 -3.43,-3.02 -5.82,-4.01 -2.4,-0.95 -5.28,-1.45 -8.6,-1.45 -5.72,0 -11.54,1.49 -17.36,4.42 -5.81,2.97 -11.24,7.07 -16.28,12.3 -4.98,5.23 -9.48,11.44 -13.39,18.61 -3.91,7.16 -6.79,15 -8.6,23.43l-11.34 52.4c-0.2,0.54 -0.44,1.03 -0.78,1.48 -0.35,0.46 -0.84,0.77 -1.57,1.04 -0.73,0.27 -1.66,0.5 -2.78,0.68 -1.18,0.18 -2.55,0.27 -4.16,0.27 -1.71,0 -3.13,-0.09 -4.16,-0.27 -1.07,-0.18 -1.85,-0.41 -2.44,-0.68 -0.59,-0.27 -0.98,-0.58 -1.12,-1.04 -0.2,-0.45 -0.2,-0.94 0,-1.48l38.47 -178.02c0.09,-0.54 0.29,-0.99 0.63,-1.44 0.34,-0.45 0.88,-0.81 1.62,-1.13 0.68,-0.31 1.66,-0.54 2.78,-0.67 1.17,-0.14 2.59,-0.18 4.35,-0.18 1.66,0 2.98,0.04 4.06,0.18 1.08,0.13 1.86,0.36 2.44,0.67 0.59,0.32 0.93,0.68 1.08,1.13 0.15,0.45 0.19,0.9 0.1,1.44l-12.37 57.09c-0.49,2.47 -1.03,5 -1.61,7.52 -0.54,2.52 -1.23,4.96 -1.96,7.34 -0.78,2.39 -1.51,4.65 -2.15,6.81 -0.68,2.16 -1.32,4.01 -1.86,5.59 1.42,-3.16 3.77,-6.54 7.04,-10.1 3.33,-3.56 7.24,-6.85 11.78,-9.91 4.6,-3.06 9.68,-5.63 15.25,-7.66 5.58,-2.03 11.34,-3.06 17.36,-3.06 5.86,0 10.9,0.81 15.05,2.39 4.16,1.57 7.53,3.73 10.22,6.53 2.64,2.75 4.59,6.08 5.77,9.91 1.22,3.83 1.81,7.98 1.81,12.48 0,3.07 -0.2,6.08 -0.59,9.06 -0.39,2.93 -0.88,5.95 -1.57,9.01l-16.22 75.02z"/>
  <path id="_8" class="fil1" d="M1249.39 1162.89c0,6.62 -0.68,13.29 -2,20.09 -1.32,6.76 -3.38,13.29 -6.11,19.6 -2.69,6.26 -6.12,12.17 -10.22,17.66 -4.11,5.5 -8.9,10.32 -14.42,14.42 -5.48,4.06 -11.64,7.3 -18.53,9.69 -6.89,2.39 -14.47,3.56 -22.78,3.56 -8.89,0 -16.47,-0.99 -22.73,-3.02 -6.25,-2.03 -11.39,-4.96 -15.4,-8.79 -4,-3.83 -6.94,-8.51 -8.79,-14.01 -1.86,-5.5 -2.79,-11.67 -2.79,-18.52 0,-6.62 0.68,-13.29 2,-20.09 1.32,-6.76 3.38,-13.25 6.11,-19.51 2.69,-6.26 6.12,-12.17 10.22,-17.71 4.11,-5.54 8.9,-10.32 14.42,-14.37 5.48,-4.06 11.63,-7.26 18.53,-9.64 6.89,-2.39 14.47,-3.56 22.78,-3.56 8.89,0 16.47,0.99 22.73,3.02 6.25,2.02 11.39,4.95 15.39,8.78 4.01,3.83 6.95,8.47 8.8,13.92 1.86,5.46 2.79,11.63 2.79,18.48zm-18.18 0.81c0,-4.82 -0.59,-9.15 -1.72,-13.02 -1.12,-3.88 -3.03,-7.17 -5.62,-9.82 -2.64,-2.71 -6.06,-4.78 -10.21,-6.22 -4.21,-1.44 -9.29,-2.17 -15.3,-2.17 -6.26,0 -11.98,1 -17.06,2.98 -5.09,1.98 -9.68,4.64 -13.74,8.02 -4.01,3.38 -7.53,7.39 -10.56,11.94 -2.98,4.59 -5.47,9.46 -7.43,14.69 -1.95,5.22 -3.37,10.63 -4.35,16.22 -0.93,5.58 -1.42,11.13 -1.42,16.58 0,4.82 0.59,9.14 1.72,13.02 1.12,3.87 3.03,7.16 5.62,9.82 2.64,2.7 6.06,4.78 10.21,6.22 4.21,1.44 9.29,2.16 15.3,2.16 6.31,0 11.98,-0.99 17.06,-2.97 5.09,-1.98 9.68,-4.69 13.74,-8.11 4.01,-3.43 7.53,-7.44 10.56,-11.99 2.98,-4.59 5.47,-9.46 7.43,-14.69 1.95,-5.22 3.37,-10.63 4.35,-16.17 0.93,-5.54 1.42,-11.04 1.42,-16.49z"/>
  <path id="_9" class="fil1" d="M1397.75 1160.54c0,4.83 -0.49,10.37 -1.52,16.63 -0.98,6.22 -2.59,12.62 -4.79,19.06 -2.2,6.49 -5.08,12.8 -8.6,19.01 -3.52,6.22 -7.77,11.72 -12.76,16.58 -4.99,4.83 -10.76,8.7 -17.35,11.67 -6.6,2.93 -14.08,4.42 -22.49,4.42 -4.5,0 -8.6,-0.41 -12.27,-1.26 -3.67,-0.81 -7.04,-1.99 -10.12,-3.47 -3.03,-1.53 -5.86,-3.29 -8.45,-5.32 -2.6,-2.03 -4.99,-4.19 -7.19,-6.58l-12.76 59.16c-0.1,0.54 -0.29,0.99 -0.63,1.44 -0.35,0.45 -0.83,0.82 -1.52,1.13 -0.68,0.32 -1.56,0.54 -2.64,0.68 -1.12,0.13 -2.49,0.18 -4.2,0.18 -1.66,0 -2.98,-0.05 -4.01,-0.18 -1.08,-0.14 -1.91,-0.36 -2.54,-0.68 -0.59,-0.31 -1.03,-0.68 -1.23,-1.13 -0.19,-0.45 -0.24,-0.9 -0.14,-1.44l36.03 -166.71c0.19,-1.21 0.92,-2.11 2.15,-2.61 1.22,-0.54 3.32,-0.81 6.25,-0.81 1.42,0 2.59,0.04 3.52,0.18 0.88,0.13 1.61,0.36 2.2,0.59 0.59,0.27 0.93,0.63 1.08,1.08 0.14,0.4 0.14,0.94 0.05,1.57l-5.14 24.24c1.23,-2.88 3.47,-6.03 6.75,-9.5 3.27,-3.43 7.18,-6.63 11.73,-9.55 4.55,-2.93 9.63,-5.41 15.2,-7.35 5.53,-1.94 11.2,-2.88 16.96,-2.88 7.19,0 13.25,1.08 18.14,3.29 4.89,2.2 8.85,5.18 11.88,8.92 3.03,3.74 5.18,8.15 6.45,13.24 1.32,5.14 1.96,10.59 1.96,16.4zm-18.19 0.68c0,-4.14 -0.39,-7.97 -1.22,-11.53 -0.83,-3.56 -2.1,-6.67 -3.86,-9.24 -1.76,-2.61 -4.11,-4.64 -7.04,-6.08 -2.89,-1.44 -6.45,-2.17 -10.66,-2.17 -5.76,0 -11.53,1.45 -17.35,4.28 -5.87,2.89 -11.29,6.85 -16.28,11.94 -5.03,5.1 -9.48,11.18 -13.39,18.25 -3.96,7.08 -6.8,14.92 -8.6,23.43l-5.24 24.02c5.19,6.76 10.66,11.8 16.43,15.18 5.77,3.38 12.22,5.09 19.41,5.09 5.62,0 10.7,-1.21 15.3,-3.69 4.59,-2.48 8.65,-5.72 12.17,-9.78 3.52,-4.01 6.6,-8.61 9.19,-13.74 2.54,-5.14 4.69,-10.46 6.35,-15.91 1.66,-5.45 2.89,-10.77 3.67,-16.04 0.73,-5.22 1.12,-9.86 1.12,-14.01z"/>
 </g>
</svg>
